<?xml version="1.0" encoding="UTF-8" standalone="no"?>
<svg
   width="5230"
   height="1955"
   viewBox="0 0 5230.0001 1955.0001"
   version="1.1"
   id="svg21"
   sodipodi:docname="apps_logo.svg"
   inkscape:export-filename="logov1_reduzido.png"
   inkscape:export-xdpi="100"
   inkscape:export-ydpi="100"
   inkscape:version="1.4 (86a8ad7, 2024-10-11)"
   xmlns:inkscape="http://www.inkscape.org/namespaces/inkscape"
   xmlns:sodipodi="http://sodipodi.sourceforge.net/DTD/sodipodi-0.dtd"
   xmlns:xlink="http://www.w3.org/1999/xlink"
   xmlns="http://www.w3.org/2000/svg"
   xmlns:svg="http://www.w3.org/2000/svg">
  <sodipodi:namedview
     id="namedview21"
     pagecolor="#ffffff"
     bordercolor="#000000"
     borderopacity="0.25"
     inkscape:showpageshadow="2"
     inkscape:pageopacity="0.0"
     inkscape:pagecheckerboard="0"
     inkscape:deskcolor="#d1d1d1"
     inkscape:zoom="0.1889045"
     inkscape:cx="2506.5575"
     inkscape:cy="976.68399"
     inkscape:window-width="1920"
     inkscape:window-height="1009"
     inkscape:window-x="-8"
     inkscape:window-y="-8"
     inkscape:window-maximized="1"
     inkscape:current-layer="svg21" />
  <defs
     id="defs2">
    <inkscape:perspective
       sodipodi:type="inkscape:persp3d"
       inkscape:vp_x="0 : 887.00008 : 1"
       inkscape:vp_y="0 : 1000 : 0"
       inkscape:vp_z="1978.0001 : 887.00008 : 1"
       inkscape:persp3d-origin="989.00002 : 531.00008 : 1"
       id="perspective36" />
    <linearGradient
       id="linearGradient34"
       inkscape:collect="always">
      <stop
         style="stop-color:#8cb829;stop-opacity:1;"
         offset="0"
         id="stop34" />
      <stop
         style="stop-color:#19a2ca;stop-opacity:1;"
         offset="1"
         id="stop35" />
    </linearGradient>
    <linearGradient
       id="gradient_0"
       gradientUnits="userSpaceOnUse"
       x1="125.86201"
       y1="113.5872"
       x2="148.16689"
       y2="271.57639">
      <stop
         offset="0"
         stop-color="#6CB249"
         id="stop1" />
      <stop
         offset="1"
         stop-color="#04A0EE"
         id="stop2" />
    </linearGradient>
    <linearGradient
       inkscape:collect="always"
       xlink:href="#linearGradient34"
       id="linearGradient35"
       x1="33.413254"
       y1="41.985352"
       x2="184.58986"
       y2="211.13898"
       gradientUnits="userSpaceOnUse"
       gradientTransform="matrix(6.08615,0,0,6.08547,-184.64207,-214.30886)" />
    <meshgradient
       inkscape:collect="always"
       id="meshgradient189"
       gradientUnits="userSpaceOnUse"
       x="31.569077"
       y="40.691753"
       gradientTransform="matrix(6.08615,0,0,6.08547,-150.95329,-199.33607)">
      <meshrow
         id="meshrow4176">
        <meshpatch
           id="meshpatch4176">
          <stop
             path="c 14.2085,-0.774556  27.4057,-11.151  39.6878,-10.3839"
             style="stop-color:#8bb829;stop-opacity:1"
             id="stop4176" />
          <stop
             path="c -0.862538,14.8579  27.7669,62.7739  26.8523,77.3213"
             style="stop-color:#8ab829;stop-opacity:1"
             id="stop4177" />
          <stop
             path="c -11.5348,-1.62354  -65.688,-26.1543  -78.8978,-26.4365"
             style="stop-color:#7cb335;stop-opacity:1"
             id="stop4178" />
          <stop
             path="c 0.0364035,-13.2864  12.358,-27.1958  12.3577,-40.5009"
             style="stop-color:#7bb234;stop-opacity:1"
             id="stop4179" />
        </meshpatch>
        <meshpatch
           id="meshpatch4179">
          <stop
             path="c 163.284,10.1974  164.825,152.214  230.739,9.76934"
             id="stop4180" />
          <stop
             path="c 0.560725,35.5754  0.97539,66.5076  1.27253,93.4776"
             style="stop-color:#8bb829;stop-opacity:1"
             id="stop4181" />
          <stop
             path="c -85.2666,166.061  -51.8106,-0.174758  -205.159,-25.9256"
             style="stop-color:#9ac144;stop-opacity:1"
             id="stop4182" />
        </meshpatch>
      </meshrow>
      <meshrow
         id="meshrow4182">
        <meshpatch
           id="meshpatch4182">
          <stop
             path="c -4.05079,64.4155  -8.46359,119.803  -12.8661,178.421"
             id="stop4183" />
          <stop
             path="c -22.7496,10.4305  -93.5746,-22.869  -100.9,-19.982"
             style="stop-color:#0b94d6;stop-opacity:1"
             id="stop4184" />
          <stop
             path="c 13.9604,-62.2262  34.7048,-126.042  34.8682,-184.876"
             style="stop-color:#0b94d6;stop-opacity:1"
             id="stop4185" />
        </meshpatch>
        <meshpatch
           id="meshpatch4185">
          <stop
             path="c 9.87981,123.909  10.9654,143.896  7.34798,165.337"
             id="stop4186" />
          <stop
             path="c -138.327,43.5585  -112.637,6.59611  -225.373,-12.8416"
             style="stop-color:#49af94;stop-opacity:1"
             id="stop4187" />
        </meshpatch>
      </meshrow>
      <meshrow
         id="meshrow4187">
        <meshpatch
           id="meshpatch4187">
          <stop
             path="c -2.23712,29.7852  -112.657,65.0667  -109.09,102.915"
             id="stop4188" />
          <stop
             path="c -6.33653,0.00688458  2.08932,-30.1336  -4.24544,-30.1333"
             style="stop-color:#0b94d6;stop-opacity:1"
             id="stop4189" />
          <stop
             path="c 4.34809e-05,-29.9341  5.34215,-61.1413  12.4355,-92.7637"
             style="stop-color:#128f80;stop-opacity:1"
             id="stop4190" />
        </meshpatch>
        <meshpatch
           id="meshpatch4190">
          <stop
             path="c -1.83812,10.8943  -4.89053,22.1639  -8.62051,47.6335"
             id="stop4191" />
          <stop
             path="c -157.407,-2.46042  -241.623,42.4419  -325.843,42.4399"
             style="stop-color:#21a7bd;stop-opacity:1"
             id="stop4192" />
        </meshpatch>
      </meshrow>
    </meshgradient>
  </defs>
  <path
     id="path2"
     style="display:none;mix-blend-mode:normal;fill:url(#linearGradient35);stroke:none;stroke-width:6.08599;stroke-dasharray:none;stroke-opacity:0"
     d="m 213.48903,29.769269 c -53.00702,2.038103 -104.83518,20.512385 -141.621093,57.353515 -97.282844,97.428976 -90.41516,253.182686 3.06445,350.923806 65.069473,68.04164 129.342333,134.30681 193.146493,201.6973 33.6278,35.89819 67.51931,71.54809 101.66992,106.94727 3.99616,4.16855 25.50702,27.71293 28.86719,29.70896 47.8998,58.27446 113.93489,102.78292 104.98825,187.74216 -6.45132,61.24422 -42.19589,88.03342 -82.54099,128.45312 -4.65834,4.6676 -22.33418,21.7791 -25.10156,26.1485 -18.36921,16.8811 -36.82413,36.8414 -54.63281,54.5136 -56.32062,55.889 -108.9497,115.0022 -163.45117,172.6134 -22.50841,23.7576 -45.16517,47.3757 -67.96875,70.8534 -25.070683,25.8207 -50.586213,49.7972 -69.931649,80.5958 -24.006818,38.0585 -37.7334245,81.6992 -39.83984046,126.6465 -1.26348504,32.0278 6.29014596,73.109 18.22265146,102.8183 76.515075,190.4813 301.773738,218.7609 446.060568,84.3633 l 147.14649,-138.2071 c 10.38906,-9.7002 64.62214,-59.126 71.6699,-67.7187 31.81839,-24.5975 54.25249,-57.2763 94.23241,-79.4883 23.86988,-12.956 50.64808,-19.6446 77.81057,-19.4316 105.32691,-0.073 120.08031,80.4739 203.83794,108.4609 43.0656,14.3861 108.6977,-3.5405 146.584,-26.002 16.676,-9.8889 33.2123,-22.8144 50.7343,-32.6972 39.5113,25.2851 9.7999,53.595 -15.3359,74.2734 -36.2917,29.8492 -80.8668,45.7806 -126.0078,56.5762 15.5927,19.3396 41.7692,44.8737 59.9121,63.2031 23.8333,24.0255 47.13,48.4716 71.3164,72.1563 65.0731,63.727 159.9562,81.4784 244.6328,47.6797 125.7703,-50.1991 204.7568,-200.7176 138.2656,-327.2832 -20.1147,-38.2837 -54.1612,-68.5896 -83.6426,-99.7715 -33.9181,-35.9956 -68.1466,-71.6983 -102.6855,-107.1035 -27.1503,-28.0419 -64.7627,-70.4094 -91.8887,-95.6641 -18.6418,-23.4473 -49.4429,-49.7851 -70.2637,-73.1289 2.5623,-24.3237 1.9529,-93.6858 0.9122,-120.6992 52.6452,-14.6052 97.4513,-37.201 124.6504,-87.51567 50.868,-94.09962 37.8735,-243.85665 -64.9825,-298.44332 -45.5,-24.22017 -93.9214,-31.76694 -142.8906,-17.53911 -45.5853,13.55842 -83.9084,44.66893 -106.5488,86.48828 -28.1302,51.47699 -31.6791,129.3766 -15.709,185.16211 21.7762,76.08051 75.0053,117.84461 150.6074,132.43751 -0.639,46.9312 -0.6933,93.8755 -0.1698,140.8067 0.1218,18.9136 0.4084,37.9186 0.1406,56.8261 -0.3347,23.1979 -3.6643,26.9214 -22.8417,37.8692 -18.2767,-10.534 -29.1954,-18.2571 -45.2872,-31.42 -35.4579,-29.0094 -78.48,-73.1519 -129.1777,-57.2871 -67.98833,21.2749 -125.67936,87.0518 -172.70704,136.8614 l -71.56059,75.1973 c -28.15453,28.9485 -54.66683,54.9959 -86.19917,80.494 -16.12221,13.0351 -33.80905,23.3316 -48.16019,34.5411 -44.44716,23.1673 -65.46172,29.0023 -114.60738,31.2539 31.30107,-41.3995 68.90027,-81.4361 102.2402,-121.375 12.11144,-14.5017 27.18074,-29.9522 38.42186,-44.6973 1.75281,-1.5883 5.69694,-5.471 7.1211,-7.1445 34.45978,-40.4562 71.42681,-79.4035 105.83791,-119.7988 C 885.41198,1146.7971 994.98127,1031.4849 991.10437,874.01733 987.60487,731.95811 899.17344,637.35802 808.89149,538.1892 787.98556,515.22264 762.27864,484.49144 740.35633,463.73999 661.50417,377.55448 581.9025,292.05454 501.56532,207.25169 461.42107,164.95585 408.37264,103.20416 362.19033,71.038803 320.68339,42.129169 266.49617,27.731172 213.48915,29.769269 Z M 739.84844,1459.8415 c 1.50644,0.5916 3.0847,1.8483 4.71482,3.5703 3.26126,3.4453 6.7283,8.7594 10.2324,14.3731 -3.50374,-5.6133 -6.97145,-10.9276 -10.2324,-14.3731 -1.63006,-1.7222 -3.20838,-2.9783 -4.71482,-3.5703 z m -4.28325,0.412 c -6.93097,4.816 -24.36712,20.2992 -41.89645,34.3867 17.5429,-14.0959 34.96018,-29.567 41.89645,-34.3867 z m 34.68363,39.5039 c 0.004,0 0.006,0 0.0122,0.01 -0.004,0 -0.006,0 -0.0122,-0.01 z m 22.33203,15.1563 c -13.65124,7.978 -30.16923,13.8137 -41.3008,24.5058 -7.4464,7.1505 -22.54541,19.4434 -36.73831,32.0274 14.1929,-12.5842 29.29191,-24.8769 36.73831,-32.0274 11.13157,-10.6921 27.64956,-16.5278 41.3008,-24.5058 z" />
  <path
     id="path41"
     style="display:inline;mix-blend-mode:normal;fill:url(#meshgradient189);fill-opacity:1;stroke:none;stroke-width:6.08599;stroke-dasharray:none;stroke-opacity:0"
     d="m 247.17781,44.742058 c -53.00702,2.038103 -104.83518,20.512385 -141.6211,57.353512 -97.2828419,97.42898 -90.415158,253.18269 3.06445,350.92381 65.06948,68.04164 129.34234,134.30681 193.1465,201.6973 33.6278,35.89819 67.51931,71.54809 101.66992,106.94727 3.99616,4.16855 25.50702,27.71293 28.86719,29.70896 47.8998,58.27446 113.93489,102.78292 104.98825,187.74216 -6.45132,61.24423 -42.19589,88.03343 -82.54099,128.45313 -4.65834,4.6676 -22.33418,21.7791 -25.10156,26.1485 -18.36921,16.8811 -36.82413,36.8414 -54.63281,54.5136 -56.32062,55.889 -108.9497,115.0022 -163.45117,172.6134 -22.50841,23.7576 -45.16517,47.3757 -67.96875,70.8534 -25.07069,25.8207 -50.586218,49.7972 -69.931654,80.5958 -24.006818,38.0585 -37.733424,81.6992 -39.83984,126.6465 -1.263485,32.0278 6.290146,73.109 18.222651,102.8183 76.515073,190.4813 301.773743,218.7609 446.060573,84.3633 l 147.14649,-138.2071 c 10.38906,-9.7002 64.62214,-59.126 71.6699,-67.7187 31.81839,-24.5975 54.25249,-57.2763 94.23241,-79.4883 23.86988,-12.956 50.64808,-19.6446 77.81057,-19.4316 105.32691,-0.073 120.08026,80.4739 203.83796,108.4609 43.0656,14.3861 108.6977,-3.5405 146.584,-26.002 16.676,-9.8889 33.2123,-22.8144 50.7343,-32.6972 39.5113,25.2851 9.7999,53.595 -15.3359,74.2734 -36.2917,29.8492 -80.8668,45.7806 -126.0078,56.5762 15.5927,19.3396 41.7692,44.8737 59.9121,63.2031 23.8333,24.0255 47.13,48.4716 71.3164,72.1563 65.0731,63.727 159.9562,81.4784 244.6328,47.6797 125.7703,-50.1991 204.7568,-200.7176 138.2656,-327.2832 -20.1147,-38.2837 -54.1612,-68.5896 -83.6426,-99.7715 -33.9181,-35.9956 -68.1466,-71.6983 -102.6855,-107.1035 -27.1503,-28.0419 -64.7627,-70.4094 -91.8887,-95.6641 -18.6418,-23.4473 -49.4429,-49.7851 -70.2637,-73.1289 2.5623,-24.3237 1.9529,-93.6858 0.9122,-120.6992 52.6452,-14.6052 97.4513,-37.201 124.6504,-87.51568 50.868,-94.09962 37.8735,-243.85665 -64.9825,-298.44332 -45.5,-24.22017 -93.9214,-31.76694 -142.8906,-17.53911 -45.5853,13.55842 -83.9084,44.66893 -106.5488,86.48828 -28.1302,51.47699 -31.6791,129.3766 -15.709,185.16211 21.7762,76.08052 75.0053,117.84462 150.6074,132.43752 -0.639,46.9312 -0.6933,93.8755 -0.1698,140.8067 0.1218,18.9136 0.4084,37.9186 0.1406,56.8261 -0.3347,23.1979 -3.6643,26.9214 -22.8417,37.8692 -18.2767,-10.534 -29.1954,-18.2571 -45.2872,-31.42 -35.4579,-29.0094 -78.48,-73.1519 -129.1777,-57.2871 -67.98835,21.2749 -125.67938,87.0518 -172.70706,136.8614 l -71.56059,75.1973 c -28.15453,28.9485 -54.66683,54.9959 -86.19917,80.494 -16.12221,13.0351 -33.80905,23.3316 -48.16019,34.5411 -44.44716,23.1673 -65.46172,29.0023 -114.60738,31.2539 31.30107,-41.3995 68.90027,-81.4361 102.2402,-121.375 12.11144,-14.5017 27.18074,-29.9522 38.42186,-44.6973 1.75281,-1.5883 5.69694,-5.471 7.1211,-7.1445 34.45978,-40.4562 71.42681,-79.4035 105.83791,-119.7988 C 919.10076,1161.7699 1028.67,1046.4577 1024.7931,888.99012 1021.2936,746.9309 932.86222,652.33081 842.58027,553.16199 821.67434,530.19543 795.96742,499.46423 774.04511,478.71278 695.19295,392.52727 615.59128,307.02733 535.2541,222.22448 495.10985,179.92864 442.06142,118.17695 395.87911,86.011592 354.37217,57.101958 300.18495,42.703961 247.17793,44.742058 Z M 773.53722,1474.8143 c 1.50644,0.5916 3.0847,1.8483 4.71482,3.5703 3.26126,3.4453 6.7283,8.7594 10.2324,14.3731 -3.50374,-5.6133 -6.97145,-10.9276 -10.2324,-14.3731 -1.63006,-1.7222 -3.20838,-2.9783 -4.71482,-3.5703 z m -4.28325,0.412 c -6.93097,4.816 -24.36712,20.2992 -41.89645,34.3867 17.5429,-14.0959 34.96018,-29.567 41.89645,-34.3867 z m 34.68363,39.5039 c 0.004,0 0.006,0 0.0122,0.01 -0.004,0 -0.006,0 -0.0122,-0.01 z m 22.33203,15.1563 c -13.65124,7.978 -30.16923,13.8137 -41.3008,24.5058 -7.4464,7.1505 -22.54541,19.4434 -36.73831,32.0274 14.1929,-12.5842 29.29191,-24.8769 36.73831,-32.0274 11.13157,-10.6921 27.64956,-16.5278 41.3008,-24.5058 z" />
  <defs
     id="defs4">
    <linearGradient
       id="gradient_1"
       gradientUnits="userSpaceOnUse"
       x1="44.609749"
       y1="47.835327"
       x2="120.3811"
       y2="136.29791">
      <stop
         offset="0"
         stop-color="#97BC21"
         id="stop3" />
      <stop
         offset="1"
         stop-color="#65AF52"
         id="stop4" />
    </linearGradient>
  </defs>
  <defs
     id="defs7">
    <linearGradient
       id="gradient_2"
       gradientUnits="userSpaceOnUse"
       x1="195.16318"
       y1="241.03841"
       x2="271.44611"
       y2="346.00961">
      <stop
         offset="0"
         stop-color="#45AB89"
         id="stop6" />
      <stop
         offset="1"
         stop-color="#1AA5C9"
         id="stop7" />
    </linearGradient>
  </defs>
  <defs
     id="defs9">
    <linearGradient
       id="gradient_3"
       gradientUnits="userSpaceOnUse"
       x1="202.12344"
       y1="144.25449"
       x2="218.98468"
       y2="267.94696">
      <stop
         offset="0"
         stop-color="#7CB530"
         id="stop8" />
      <stop
         offset="1"
         stop-color="#41AB8A"
         id="stop9" />
    </linearGradient>
  </defs>
  <path
     fill="#f79428"
     d="m 1543.6744,43.252067 0.9677,-0.0073 c 105.5338,-0.187433 208.1402,56.195056 238.0719,161.315463 19.2992,67.77205 19.0679,155.88844 -34.265,208.59409 -15.8788,15.82222 -35.5857,27.25682 -57.2038,33.18406 -32.5913,8.91522 -81.4083,6.66968 -116.0994,6.60274 l -119.7389,-0.22516 c -55.6152,0.20082 -135.3559,8.09976 -182.7731,-20.65409 -30.6255,-18.57285 -56.0596,-52.87239 -64.4402,-87.90157 -7.3642,-31.39555 -1.7893,-64.43296 15.471,-91.67335 27.3025,-43.27864 65.6087,-60.18225 113.2937,-70.9657 11.8375,-24.85793 25.2027,-52.26993 44.7514,-72.07935 46.1391,-46.752839 98.2975,-64.247957 161.9647,-66.189831 z"
     id="path11"
     style="display:inline;stroke-width:6.08581" />
  <path
     fill="#ffffff"
     fill-opacity="0.933333"
     d="m 1491.5769,106.9006 c 3.0188,-0.34443 6.0497,-0.5696 9.0866,-0.67366 53.9903,-1.64916 109.8307,27.89519 129.7263,80.87164 5.6967,12.04558 5.4045,45.92035 13.7486,54.71933 9.5066,7.23136 26.7304,6.22483 38.002,8.57929 57.5628,12.02428 67.538,91.50904 28.1545,130.96662 -8.8249,8.81724 -20.0234,14.87837 -32.2383,17.44704 -15.684,3.36162 -48.0685,1.68872 -65.5235,1.64247 l -114.1945,0.0396 -102.6916,0.20021 c -33.0234,0.0974 -79.7651,3.84723 -106.3554,-16.61394 -36.1639,-27.81973 -43.9786,-74.6103 -17.4551,-111.03671 15.3492,-20.80013 38.3366,-34.6537 63.9046,-38.51494 30.3151,-4.71745 46.9059,3.84846 56.3638,-33.27109 13.2069,-51.83725 45.7496,-85.92135 99.472,-94.35582 z"
     id="path12"
     style="display:inline;stroke-width:6.08581;fill:#ffffff;fill-opacity:1" />
  <path
     fill="#f79428"
     d="m 959.64128,169.40873 c 74.34232,-7.68778 140.86402,46.28791 148.64822,120.61462 7.7841,74.32671 -46.1087,140.91271 -120.43892,148.78731 -74.45796,7.89894 -141.19868,-46.11387 -148.99504,-120.57568 -7.79635,-74.4612 46.30343,-141.12387 120.78574,-148.82625 z"
     id="path13"
     style="display:inline;stroke-width:6.08581" />
  <path
     fill="#f79428"
     d="m 974.50974,15.025223 c 29.08566,-1.571268 26.60856,32.537791 25.44621,53.054953 -1.4242,25.063007 8.14325,55.257284 -16.56043,67.918104 -6.99299,0.25255 -24.41155,0.46554 -25.33664,-8.98763 -3.09177,-31.574457 -3.0309,-67.074658 -0.2191,-98.63208 0.47472,-5.29801 12.38531,-11.19483 16.66996,-13.353347 z"
     id="path14"
     style="display:inline;stroke-width:6.08581" />
  <path
     fill="#f79428"
     d="m 1518.7333,492.94091 c 3.7734,0.32862 8.4841,0.62072 11.8984,2.19686 4.1934,1.92301 7.3704,5.53169 8.7398,9.93148 5.3071,16.68028 -10.7847,44.69778 -17.8081,60.58086 -6.001,13.5706 -11.089,21.29306 -24.8924,26.0093 -5.2767,-2.59241 -22.4153,-9.99234 -22.4822,-17.22797 -0.2313,-24.14106 19.1288,-55.19521 32.1349,-75.15555 2.404,-3.6878 8.3502,-5.31262 12.4096,-6.33498 z"
     id="path15"
     style="display:inline;stroke-width:6.08581" />
  <path
     fill="#f79428"
     d="m 1112.8967,453.09934 c 15.8483,-0.79111 34.3319,21.23829 46.912,30.75597 17.875,13.52191 41.2702,41.50899 8.4902,54.7814 -14.1016,-0.13997 -25.8905,-12.74906 -36.243,-21.71905 -19.9443,-17.28882 -57.0759,-41.04649 -19.1592,-63.81832 z"
     id="path16"
     style="display:inline;stroke-width:6.08581" />
  <path
     fill="#f79428"
     d="m 1409.0974,493.06871 c 46.3947,5.27001 8.2163,59.79583 -1.6554,82.98755 -3.7734,8.86653 -9.4396,12.96205 -18.1307,16.67419 -41.3553,-10.64349 -19.7313,-36.53108 -8.4293,-62.37607 5.8975,-13.47323 13.42,-33.99343 28.2154,-37.28567 z"
     id="path17"
     style="display:inline;stroke-width:6.08581" />
  <path
     fill="#f79428"
     d="m 775.04835,123.05388 c 19.4635,-2.61006 55.6761,44.08618 68.97434,58.51605 9.54308,10.35747 -1.95366,22.47547 -11.38719,28.53903 -1.38156,0.27567 -8.55713,1.66194 -9.70741,1.24265 -18.83055,-8.33162 -37.10726,-29.06299 -50.45418,-44.62414 -14.25377,-16.62307 -15.73879,-30.70668 2.57444,-43.67359 z"
     id="path18"
     style="display:inline;stroke-width:6.08581" />
  <path
     fill="#f79428"
     d="m 1164.3368,110.5957 c 12.7018,2.23824 25.8783,14.07082 19.1288,27.55866 -10.4195,20.82509 -43.9299,50.60373 -64.5558,60.51878 -52.5113,-9.1781 3.4204,-55.04551 19.9321,-68.54612 9.0988,-7.43827 14.3694,-14.2893 25.4949,-19.53132 z"
     id="path19"
     style="display:inline;stroke-width:6.08581" />
  <path
     fill="#f79428"
     d="m 971.11976,473.46132 c 4.12032,-0.18256 8.24673,-0.12779 12.36097,0.1704 5.2706,0.42598 8.13112,1.57613 11.49672,5.59863 5.03925,12.49955 3.0248,58.64567 1.3207,73.91412 -1.2477,11.16075 -4.3029,14.78769 -12.81742,20.92184 -6.87127,0.27385 -21.60584,-0.0548 -23.75425,-7.27213 -5.30712,-17.85477 -7.28512,-69.82469 -2.55618,-86.34065 3.74298,-4.47282 8.22239,-5.15439 13.94946,-6.99221 z"
     id="path20"
     style="display:inline;stroke-width:6.08581" />
  <path
     fill="#f79428"
     d="m 759.38868,280.6359 c 15.9092,-0.15213 65.18267,-4.60852 39.37739,36.78241 -4.4794,7.17781 -30.53421,5.45988 -40.21728,5.37773 -9.55525,0.18926 -36.43169,1.84146 -40.62505,-5.87917 -23.44385,-43.18797 25.21492,-36.38929 41.46494,-36.28097 z"
     id="path21"
     style="display:inline;stroke-width:6.08581" />
  <path
     fill="#ffffff"
     fill-opacity="0.933333"
     d="m 776.5212,696.73113 c 40.12598,36.03816 92.73466,104.09197 99.50246,159.13504 8.71537,70.83487 -29.91343,122.61614 -101.92475,131.27576 -64.93314,-3.37743 -108.74733,-60.3496 -101.93084,-123.85757 7.47379,-69.56301 52.82778,-122.99343 104.35313,-166.55323 z"
     id="path34"
     style="display:inline;fill:#ffffff;fill-opacity:1;stroke-width:6.08581" />
  <path
     fill="#ffffff"
     fill-opacity="0.933333"
     d="m 1282.2864,704.9952 c 58.4757,-3.03665 115.083,45.46455 125.6668,102.24807 15.3432,82.32424 -1.9475,175.68143 -96.8793,196.81023 0.1765,-26.26494 4.948,-142.26008 -4.9541,-157.33987 -5.0941,-7.76506 -12.9879,-10.86865 -21.7033,-12.52999 -13.4686,4.30243 -22.5857,10.47918 -23.4499,25.5894 -2.757,48.54988 0.4139,98.18298 -1.5946,146.78156 -66.9354,-17.91564 -97.7861,-61.63974 -103.5923,-129.45622 -7.4616,-87.09525 28.8179,-166.23679 126.5067,-172.10318 z"
     id="path35"
     style="display:inline;fill:#ffffff;fill-opacity:1;stroke-width:6.08581" />
  <script
     id="mesh_polyfill"
     type="text/javascript">
!function(){const t=&quot;http://www.w3.org/2000/svg&quot;,e=&quot;http://www.w3.org/1999/xlink&quot;,s=&quot;http://www.w3.org/1999/xhtml&quot;,r=2;if(document.createElementNS(t,&quot;meshgradient&quot;).x)return;const n=(t,e,s,r)=&gt;{let n=new x(.5*(e.x+s.x),.5*(e.y+s.y)),o=new x(.5*(t.x+e.x),.5*(t.y+e.y)),i=new x(.5*(s.x+r.x),.5*(s.y+r.y)),a=new x(.5*(n.x+o.x),.5*(n.y+o.y)),h=new x(.5*(n.x+i.x),.5*(n.y+i.y)),l=new x(.5*(a.x+h.x),.5*(a.y+h.y));return[[t,o,a,l],[l,h,i,r]]},o=t=&gt;{let e=t[0].distSquared(t[1]),s=t[2].distSquared(t[3]),r=.25*t[0].distSquared(t[2]),n=.25*t[1].distSquared(t[3]),o=e&gt;s?e:s,i=r&gt;n?r:n;return 18*(o&gt;i?o:i)},i=(t,e)=&gt;Math.sqrt(t.distSquared(e)),a=(t,e)=&gt;t.scale(2/3).add(e.scale(1/3)),h=t=&gt;{let e,s,r,n,o,i,a,h=new g;return t.match(/(\w+\(\s*[^)]+\))+/g).forEach(t=&gt;{let l=t.match(/[\w.-]+/g),d=l.shift();switch(d){case&quot;translate&quot;:2===l.length?e=new g(1,0,0,1,l[0],l[1]):(console.error(&quot;mesh.js: translate does not have 2 arguments!&quot;),e=new g(1,0,0,1,0,0)),h=h.append(e);break;case&quot;scale&quot;:1===l.length?s=new g(l[0],0,0,l[0],0,0):2===l.length?s=new g(l[0],0,0,l[1],0,0):(console.error(&quot;mesh.js: scale does not have 1 or 2 arguments!&quot;),s=new g(1,0,0,1,0,0)),h=h.append(s);break;case&quot;rotate&quot;:if(3===l.length&amp;&amp;(e=new g(1,0,0,1,l[1],l[2]),h=h.append(e)),l[0]){r=l[0]*Math.PI/180;let t=Math.cos(r),e=Math.sin(r);Math.abs(t)&lt;1e-16&amp;&amp;(t=0),Math.abs(e)&lt;1e-16&amp;&amp;(e=0),a=new g(t,e,-e,t,0,0),h=h.append(a)}else console.error(&quot;math.js: No argument to rotate transform!&quot;);3===l.length&amp;&amp;(e=new g(1,0,0,1,-l[1],-l[2]),h=h.append(e));break;case&quot;skewX&quot;:l[0]?(r=l[0]*Math.PI/180,n=Math.tan(r),o=new g(1,0,n,1,0,0),h=h.append(o)):console.error(&quot;math.js: No argument to skewX transform!&quot;);break;case&quot;skewY&quot;:l[0]?(r=l[0]*Math.PI/180,n=Math.tan(r),i=new g(1,n,0,1,0,0),h=h.append(i)):console.error(&quot;math.js: No argument to skewY transform!&quot;);break;case&quot;matrix&quot;:6===l.length?h=h.append(new g(...l)):console.error(&quot;math.js: Incorrect number of arguments for matrix!&quot;);break;default:console.error(&quot;mesh.js: Unhandled transform type: &quot;+d)}}),h},l=t=&gt;{let e=[],s=t.split(/[ ,]+/);for(let t=0,r=s.length-1;t&lt;r;t+=2)e.push(new x(parseFloat(s[t]),parseFloat(s[t+1])));return e},d=(t,e)=&gt;{for(let s in e)t.setAttribute(s,e[s])},c=(t,e,s,r,n)=&gt;{let o,i,a=[0,0,0,0];for(let h=0;h&lt;3;++h)e[h]&lt;t[h]&amp;&amp;e[h]&lt;s[h]||t[h]&lt;e[h]&amp;&amp;s[h]&lt;e[h]?a[h]=0:(a[h]=.5*((e[h]-t[h])/r+(s[h]-e[h])/n),o=Math.abs(3*(e[h]-t[h])/r),i=Math.abs(3*(s[h]-e[h])/n),a[h]&gt;o?a[h]=o:a[h]&gt;i&amp;&amp;(a[h]=i));return a},u=[[1,0,0,0,0,0,0,0,0,0,0,0,0,0,0,0],[0,0,0,0,1,0,0,0,0,0,0,0,0,0,0,0],[-3,3,0,0,-2,-1,0,0,0,0,0,0,0,0,0,0],[2,-2,0,0,1,1,0,0,0,0,0,0,0,0,0,0],[0,0,0,0,0,0,0,0,1,0,0,0,0,0,0,0],[0,0,0,0,0,0,0,0,0,0,0,0,1,0,0,0],[0,0,0,0,0,0,0,0,-3,3,0,0,-2,-1,0,0],[0,0,0,0,0,0,0,0,2,-2,0,0,1,1,0,0],[-3,0,3,0,0,0,0,0,-2,0,-1,0,0,0,0,0],[0,0,0,0,-3,0,3,0,0,0,0,0,-2,0,-1,0],[9,-9,-9,9,6,3,-6,-3,6,-6,3,-3,4,2,2,1],[-6,6,6,-6,-3,-3,3,3,-4,4,-2,2,-2,-2,-1,-1],[2,0,-2,0,0,0,0,0,1,0,1,0,0,0,0,0],[0,0,0,0,2,0,-2,0,0,0,0,0,1,0,1,0],[-6,6,6,-6,-4,-2,4,2,-3,3,-3,3,-2,-1,-2,-1],[4,-4,-4,4,2,2,-2,-2,2,-2,2,-2,1,1,1,1]],f=t=&gt;{let e=[];for(let s=0;s&lt;16;++s){e[s]=0;for(let r=0;r&lt;16;++r)e[s]+=u[s][r]*t[r]}return e},p=(t,e,s)=&gt;{const r=e*e,n=s*s,o=e*e*e,i=s*s*s;return t[0]+t[1]*e+t[2]*r+t[3]*o+t[4]*s+t[5]*s*e+t[6]*s*r+t[7]*s*o+t[8]*n+t[9]*n*e+t[10]*n*r+t[11]*n*o+t[12]*i+t[13]*i*e+t[14]*i*r+t[15]*i*o},y=t=&gt;{let e=[],s=[],r=[];for(let s=0;s&lt;4;++s)e[s]=[],e[s][0]=n(t[0][s],t[1][s],t[2][s],t[3][s]),e[s][1]=[],e[s][1].push(...n(...e[s][0][0])),e[s][1].push(...n(...e[s][0][1])),e[s][2]=[],e[s][2].push(...n(...e[s][1][0])),e[s][2].push(...n(...e[s][1][1])),e[s][2].push(...n(...e[s][1][2])),e[s][2].push(...n(...e[s][1][3]));for(let t=0;t&lt;8;++t){s[t]=[];for(let r=0;r&lt;4;++r)s[t][r]=[],s[t][r][0]=n(e[0][2][t][r],e[1][2][t][r],e[2][2][t][r],e[3][2][t][r]),s[t][r][1]=[],s[t][r][1].push(...n(...s[t][r][0][0])),s[t][r][1].push(...n(...s[t][r][0][1])),s[t][r][2]=[],s[t][r][2].push(...n(...s[t][r][1][0])),s[t][r][2].push(...n(...s[t][r][1][1])),s[t][r][2].push(...n(...s[t][r][1][2])),s[t][r][2].push(...n(...s[t][r][1][3]))}for(let t=0;t&lt;8;++t){r[t]=[];for(let e=0;e&lt;8;++e)r[t][e]=[],r[t][e][0]=s[t][0][2][e],r[t][e][1]=s[t][1][2][e],r[t][e][2]=s[t][2][2][e],r[t][e][3]=s[t][3][2][e]}return r};class x{constructor(t,e){this.x=t||0,this.y=e||0}toString(){return`(x=${this.x}, y=${this.y})`}clone(){return new x(this.x,this.y)}add(t){return new x(this.x+t.x,this.y+t.y)}scale(t){return void 0===t.x?new x(this.x*t,this.y*t):new x(this.x*t.x,this.y*t.y)}distSquared(t){let e=this.x-t.x,s=this.y-t.y;return e*e+s*s}transform(t){let e=this.x*t.a+this.y*t.c+t.e,s=this.x*t.b+this.y*t.d+t.f;return new x(e,s)}}class g{constructor(t,e,s,r,n,o){void 0===t?(this.a=1,this.b=0,this.c=0,this.d=1,this.e=0,this.f=0):(this.a=t,this.b=e,this.c=s,this.d=r,this.e=n,this.f=o)}toString(){return`affine: ${this.a} ${this.c} ${this.e} \n       ${this.b} ${this.d} ${this.f}`}append(t){t instanceof g||console.error(&quot;mesh.js: argument to Affine.append is not affine!&quot;);let e=this.a*t.a+this.c*t.b,s=this.b*t.a+this.d*t.b,r=this.a*t.c+this.c*t.d,n=this.b*t.c+this.d*t.d,o=this.a*t.e+this.c*t.f+this.e,i=this.b*t.e+this.d*t.f+this.f;return new g(e,s,r,n,o,i)}}class w{constructor(t,e){this.nodes=t,this.colors=e}paintCurve(t,e){if(o(this.nodes)&gt;r){const s=n(...this.nodes);let r=[[],[]],o=[[],[]];for(let t=0;t&lt;4;++t)r[0][t]=this.colors[0][t],r[1][t]=(this.colors[0][t]+this.colors[1][t])/2,o[0][t]=r[1][t],o[1][t]=this.colors[1][t];let i=new w(s[0],r),a=new w(s[1],o);i.paintCurve(t,e),a.paintCurve(t,e)}else{let s=Math.round(this.nodes[0].x);if(s&gt;=0&amp;&amp;s&lt;e){let r=4*(~~this.nodes[0].y*e+s);t[r]=Math.round(this.colors[0][0]),t[r+1]=Math.round(this.colors[0][1]),t[r+2]=Math.round(this.colors[0][2]),t[r+3]=Math.round(this.colors[0][3])}}}}class m{constructor(t,e){this.nodes=t,this.colors=e}split(){let t=[[],[],[],[]],e=[[],[],[],[]],s=[[[],[]],[[],[]]],r=[[[],[]],[[],[]]];for(let s=0;s&lt;4;++s){const r=n(this.nodes[0][s],this.nodes[1][s],this.nodes[2][s],this.nodes[3][s]);t[0][s]=r[0][0],t[1][s]=r[0][1],t[2][s]=r[0][2],t[3][s]=r[0][3],e[0][s]=r[1][0],e[1][s]=r[1][1],e[2][s]=r[1][2],e[3][s]=r[1][3]}for(let t=0;t&lt;4;++t)s[0][0][t]=this.colors[0][0][t],s[0][1][t]=this.colors[0][1][t],s[1][0][t]=(this.colors[0][0][t]+this.colors[1][0][t])/2,s[1][1][t]=(this.colors[0][1][t]+this.colors[1][1][t])/2,r[0][0][t]=s[1][0][t],r[0][1][t]=s[1][1][t],r[1][0][t]=this.colors[1][0][t],r[1][1][t]=this.colors[1][1][t];return[new m(t,s),new m(e,r)]}paint(t,e){let s,n=!1;for(let t=0;t&lt;4;++t)if((s=o([this.nodes[0][t],this.nodes[1][t],this.nodes[2][t],this.nodes[3][t]]))&gt;r){n=!0;break}if(n){let s=this.split();s[0].paint(t,e),s[1].paint(t,e)}else{new w([...this.nodes[0]],[...this.colors[0]]).paintCurve(t,e)}}}class b{constructor(t){this.readMesh(t),this.type=t.getAttribute(&quot;type&quot;)||&quot;bilinear&quot;}readMesh(t){let e=[[]],s=[[]],r=Number(t.getAttribute(&quot;x&quot;)),n=Number(t.getAttribute(&quot;y&quot;));e[0][0]=new x(r,n);let o=t.children;for(let t=0,r=o.length;t&lt;r;++t){e[3*t+1]=[],e[3*t+2]=[],e[3*t+3]=[],s[t+1]=[];let r=o[t].children;for(let n=0,o=r.length;n&lt;o;++n){let o=r[n].children;for(let r=0,i=o.length;r&lt;i;++r){let i=r;0!==t&amp;&amp;++i;let h,d=o[r].getAttribute(&quot;path&quot;),c=&quot;l&quot;;null!=d&amp;&amp;(c=(h=d.match(/\s*([lLcC])\s*(.*)/))[1]);let u=l(h[2]);switch(c){case&quot;l&quot;:0===i?(e[3*t][3*n+3]=u[0].add(e[3*t][3*n]),e[3*t][3*n+1]=a(e[3*t][3*n],e[3*t][3*n+3]),e[3*t][3*n+2]=a(e[3*t][3*n+3],e[3*t][3*n])):1===i?(e[3*t+3][3*n+3]=u[0].add(e[3*t][3*n+3]),e[3*t+1][3*n+3]=a(e[3*t][3*n+3],e[3*t+3][3*n+3]),e[3*t+2][3*n+3]=a(e[3*t+3][3*n+3],e[3*t][3*n+3])):2===i?(0===n&amp;&amp;(e[3*t+3][3*n+0]=u[0].add(e[3*t+3][3*n+3])),e[3*t+3][3*n+1]=a(e[3*t+3][3*n],e[3*t+3][3*n+3]),e[3*t+3][3*n+2]=a(e[3*t+3][3*n+3],e[3*t+3][3*n])):(e[3*t+1][3*n]=a(e[3*t][3*n],e[3*t+3][3*n]),e[3*t+2][3*n]=a(e[3*t+3][3*n],e[3*t][3*n]));break;case&quot;L&quot;:0===i?(e[3*t][3*n+3]=u[0],e[3*t][3*n+1]=a(e[3*t][3*n],e[3*t][3*n+3]),e[3*t][3*n+2]=a(e[3*t][3*n+3],e[3*t][3*n])):1===i?(e[3*t+3][3*n+3]=u[0],e[3*t+1][3*n+3]=a(e[3*t][3*n+3],e[3*t+3][3*n+3]),e[3*t+2][3*n+3]=a(e[3*t+3][3*n+3],e[3*t][3*n+3])):2===i?(0===n&amp;&amp;(e[3*t+3][3*n+0]=u[0]),e[3*t+3][3*n+1]=a(e[3*t+3][3*n],e[3*t+3][3*n+3]),e[3*t+3][3*n+2]=a(e[3*t+3][3*n+3],e[3*t+3][3*n])):(e[3*t+1][3*n]=a(e[3*t][3*n],e[3*t+3][3*n]),e[3*t+2][3*n]=a(e[3*t+3][3*n],e[3*t][3*n]));break;case&quot;c&quot;:0===i?(e[3*t][3*n+1]=u[0].add(e[3*t][3*n]),e[3*t][3*n+2]=u[1].add(e[3*t][3*n]),e[3*t][3*n+3]=u[2].add(e[3*t][3*n])):1===i?(e[3*t+1][3*n+3]=u[0].add(e[3*t][3*n+3]),e[3*t+2][3*n+3]=u[1].add(e[3*t][3*n+3]),e[3*t+3][3*n+3]=u[2].add(e[3*t][3*n+3])):2===i?(e[3*t+3][3*n+2]=u[0].add(e[3*t+3][3*n+3]),e[3*t+3][3*n+1]=u[1].add(e[3*t+3][3*n+3]),0===n&amp;&amp;(e[3*t+3][3*n+0]=u[2].add(e[3*t+3][3*n+3]))):(e[3*t+2][3*n]=u[0].add(e[3*t+3][3*n]),e[3*t+1][3*n]=u[1].add(e[3*t+3][3*n]));break;case&quot;C&quot;:0===i?(e[3*t][3*n+1]=u[0],e[3*t][3*n+2]=u[1],e[3*t][3*n+3]=u[2]):1===i?(e[3*t+1][3*n+3]=u[0],e[3*t+2][3*n+3]=u[1],e[3*t+3][3*n+3]=u[2]):2===i?(e[3*t+3][3*n+2]=u[0],e[3*t+3][3*n+1]=u[1],0===n&amp;&amp;(e[3*t+3][3*n+0]=u[2])):(e[3*t+2][3*n]=u[0],e[3*t+1][3*n]=u[1]);break;default:console.error(&quot;mesh.js: &quot;+c+&quot; invalid path type.&quot;)}if(0===t&amp;&amp;0===n||r&gt;0){let e=window.getComputedStyle(o[r]).stopColor.match(/^rgb\s*\(\s*(\d+)\s*,\s*(\d+)\s*,\s*(\d+)\s*\)$/i),a=window.getComputedStyle(o[r]).stopOpacity,h=255;a&amp;&amp;(h=Math.floor(255*a)),e&amp;&amp;(0===i?(s[t][n]=[],s[t][n][0]=Math.floor(e[1]),s[t][n][1]=Math.floor(e[2]),s[t][n][2]=Math.floor(e[3]),s[t][n][3]=h):1===i?(s[t][n+1]=[],s[t][n+1][0]=Math.floor(e[1]),s[t][n+1][1]=Math.floor(e[2]),s[t][n+1][2]=Math.floor(e[3]),s[t][n+1][3]=h):2===i?(s[t+1][n+1]=[],s[t+1][n+1][0]=Math.floor(e[1]),s[t+1][n+1][1]=Math.floor(e[2]),s[t+1][n+1][2]=Math.floor(e[3]),s[t+1][n+1][3]=h):3===i&amp;&amp;(s[t+1][n]=[],s[t+1][n][0]=Math.floor(e[1]),s[t+1][n][1]=Math.floor(e[2]),s[t+1][n][2]=Math.floor(e[3]),s[t+1][n][3]=h))}}e[3*t+1][3*n+1]=new x,e[3*t+1][3*n+2]=new x,e[3*t+2][3*n+1]=new x,e[3*t+2][3*n+2]=new x,e[3*t+1][3*n+1].x=(-4*e[3*t][3*n].x+6*(e[3*t][3*n+1].x+e[3*t+1][3*n].x)+-2*(e[3*t][3*n+3].x+e[3*t+3][3*n].x)+3*(e[3*t+3][3*n+1].x+e[3*t+1][3*n+3].x)+-1*e[3*t+3][3*n+3].x)/9,e[3*t+1][3*n+2].x=(-4*e[3*t][3*n+3].x+6*(e[3*t][3*n+2].x+e[3*t+1][3*n+3].x)+-2*(e[3*t][3*n].x+e[3*t+3][3*n+3].x)+3*(e[3*t+3][3*n+2].x+e[3*t+1][3*n].x)+-1*e[3*t+3][3*n].x)/9,e[3*t+2][3*n+1].x=(-4*e[3*t+3][3*n].x+6*(e[3*t+3][3*n+1].x+e[3*t+2][3*n].x)+-2*(e[3*t+3][3*n+3].x+e[3*t][3*n].x)+3*(e[3*t][3*n+1].x+e[3*t+2][3*n+3].x)+-1*e[3*t][3*n+3].x)/9,e[3*t+2][3*n+2].x=(-4*e[3*t+3][3*n+3].x+6*(e[3*t+3][3*n+2].x+e[3*t+2][3*n+3].x)+-2*(e[3*t+3][3*n].x+e[3*t][3*n+3].x)+3*(e[3*t][3*n+2].x+e[3*t+2][3*n].x)+-1*e[3*t][3*n].x)/9,e[3*t+1][3*n+1].y=(-4*e[3*t][3*n].y+6*(e[3*t][3*n+1].y+e[3*t+1][3*n].y)+-2*(e[3*t][3*n+3].y+e[3*t+3][3*n].y)+3*(e[3*t+3][3*n+1].y+e[3*t+1][3*n+3].y)+-1*e[3*t+3][3*n+3].y)/9,e[3*t+1][3*n+2].y=(-4*e[3*t][3*n+3].y+6*(e[3*t][3*n+2].y+e[3*t+1][3*n+3].y)+-2*(e[3*t][3*n].y+e[3*t+3][3*n+3].y)+3*(e[3*t+3][3*n+2].y+e[3*t+1][3*n].y)+-1*e[3*t+3][3*n].y)/9,e[3*t+2][3*n+1].y=(-4*e[3*t+3][3*n].y+6*(e[3*t+3][3*n+1].y+e[3*t+2][3*n].y)+-2*(e[3*t+3][3*n+3].y+e[3*t][3*n].y)+3*(e[3*t][3*n+1].y+e[3*t+2][3*n+3].y)+-1*e[3*t][3*n+3].y)/9,e[3*t+2][3*n+2].y=(-4*e[3*t+3][3*n+3].y+6*(e[3*t+3][3*n+2].y+e[3*t+2][3*n+3].y)+-2*(e[3*t+3][3*n].y+e[3*t][3*n+3].y)+3*(e[3*t][3*n+2].y+e[3*t+2][3*n].y)+-1*e[3*t][3*n].y)/9}}this.nodes=e,this.colors=s}paintMesh(t,e){let s=(this.nodes.length-1)/3,r=(this.nodes[0].length-1)/3;if(&quot;bilinear&quot;===this.type||s&lt;2||r&lt;2){let n;for(let o=0;o&lt;s;++o)for(let s=0;s&lt;r;++s){let r=[];for(let t=3*o,e=3*o+4;t&lt;e;++t)r.push(this.nodes[t].slice(3*s,3*s+4));let i=[];i.push(this.colors[o].slice(s,s+2)),i.push(this.colors[o+1].slice(s,s+2)),(n=new m(r,i)).paint(t,e)}}else{let n,o,a,h,l,d,u;const x=s,g=r;s++,r++;let w=new Array(s);for(let t=0;t&lt;s;++t){w[t]=new Array(r);for(let e=0;e&lt;r;++e)w[t][e]=[],w[t][e][0]=this.nodes[3*t][3*e],w[t][e][1]=this.colors[t][e]}for(let t=0;t&lt;s;++t)for(let e=0;e&lt;r;++e)0!==t&amp;&amp;t!==x&amp;&amp;(n=i(w[t-1][e][0],w[t][e][0]),o=i(w[t+1][e][0],w[t][e][0]),w[t][e][2]=c(w[t-1][e][1],w[t][e][1],w[t+1][e][1],n,o)),0!==e&amp;&amp;e!==g&amp;&amp;(n=i(w[t][e-1][0],w[t][e][0]),o=i(w[t][e+1][0],w[t][e][0]),w[t][e][3]=c(w[t][e-1][1],w[t][e][1],w[t][e+1][1],n,o));for(let t=0;t&lt;r;++t){w[0][t][2]=[],w[x][t][2]=[];for(let e=0;e&lt;4;++e)n=i(w[1][t][0],w[0][t][0]),o=i(w[x][t][0],w[x-1][t][0]),w[0][t][2][e]=n&gt;0?2*(w[1][t][1][e]-w[0][t][1][e])/n-w[1][t][2][e]:0,w[x][t][2][e]=o&gt;0?2*(w[x][t][1][e]-w[x-1][t][1][e])/o-w[x-1][t][2][e]:0}for(let t=0;t&lt;s;++t){w[t][0][3]=[],w[t][g][3]=[];for(let e=0;e&lt;4;++e)n=i(w[t][1][0],w[t][0][0]),o=i(w[t][g][0],w[t][g-1][0]),w[t][0][3][e]=n&gt;0?2*(w[t][1][1][e]-w[t][0][1][e])/n-w[t][1][3][e]:0,w[t][g][3][e]=o&gt;0?2*(w[t][g][1][e]-w[t][g-1][1][e])/o-w[t][g-1][3][e]:0}for(let s=0;s&lt;x;++s)for(let r=0;r&lt;g;++r){let n=i(w[s][r][0],w[s+1][r][0]),o=i(w[s][r+1][0],w[s+1][r+1][0]),c=i(w[s][r][0],w[s][r+1][0]),x=i(w[s+1][r][0],w[s+1][r+1][0]),g=[[],[],[],[]];for(let t=0;t&lt;4;++t){(d=[])[0]=w[s][r][1][t],d[1]=w[s+1][r][1][t],d[2]=w[s][r+1][1][t],d[3]=w[s+1][r+1][1][t],d[4]=w[s][r][2][t]*n,d[5]=w[s+1][r][2][t]*n,d[6]=w[s][r+1][2][t]*o,d[7]=w[s+1][r+1][2][t]*o,d[8]=w[s][r][3][t]*c,d[9]=w[s+1][r][3][t]*x,d[10]=w[s][r+1][3][t]*c,d[11]=w[s+1][r+1][3][t]*x,d[12]=0,d[13]=0,d[14]=0,d[15]=0,u=f(d);for(let e=0;e&lt;9;++e){g[t][e]=[];for(let s=0;s&lt;9;++s)g[t][e][s]=p(u,e/8,s/8),g[t][e][s]&gt;255?g[t][e][s]=255:g[t][e][s]&lt;0&amp;&amp;(g[t][e][s]=0)}}h=[];for(let t=3*s,e=3*s+4;t&lt;e;++t)h.push(this.nodes[t].slice(3*r,3*r+4));l=y(h);for(let s=0;s&lt;8;++s)for(let r=0;r&lt;8;++r)(a=new m(l[s][r],[[[g[0][s][r],g[1][s][r],g[2][s][r],g[3][s][r]],[g[0][s][r+1],g[1][s][r+1],g[2][s][r+1],g[3][s][r+1]]],[[g[0][s+1][r],g[1][s+1][r],g[2][s+1][r],g[3][s+1][r]],[g[0][s+1][r+1],g[1][s+1][r+1],g[2][s+1][r+1],g[3][s+1][r+1]]]])).paint(t,e)}}}transform(t){if(t instanceof x)for(let e=0,s=this.nodes.length;e&lt;s;++e)for(let s=0,r=this.nodes[0].length;s&lt;r;++s)this.nodes[e][s]=this.nodes[e][s].add(t);else if(t instanceof g)for(let e=0,s=this.nodes.length;e&lt;s;++e)for(let s=0,r=this.nodes[0].length;s&lt;r;++s)this.nodes[e][s]=this.nodes[e][s].transform(t)}scale(t){for(let e=0,s=this.nodes.length;e&lt;s;++e)for(let s=0,r=this.nodes[0].length;s&lt;r;++s)this.nodes[e][s]=this.nodes[e][s].scale(t)}}document.querySelectorAll(&quot;rect,circle,ellipse,path,text&quot;).forEach((r,n)=&gt;{let o=r.getAttribute(&quot;id&quot;);o||(o=&quot;patchjs_shape&quot;+n,r.setAttribute(&quot;id&quot;,o));const i=r.style.fill.match(/^url\(\s*&quot;?\s*#([^\s&quot;]+)&quot;?\s*\)/),a=r.style.stroke.match(/^url\(\s*&quot;?\s*#([^\s&quot;]+)&quot;?\s*\)/);if(i&amp;&amp;i[1]){const a=document.getElementById(i[1]);if(a&amp;&amp;&quot;meshgradient&quot;===a.nodeName){const i=r.getBBox();let l=document.createElementNS(s,&quot;canvas&quot;);d(l,{width:i.width,height:i.height});const c=l.getContext(&quot;2d&quot;);let u=c.createImageData(i.width,i.height);const f=new b(a);&quot;objectBoundingBox&quot;===a.getAttribute(&quot;gradientUnits&quot;)&amp;&amp;f.scale(new x(i.width,i.height));const p=a.getAttribute(&quot;gradientTransform&quot;);null!=p&amp;&amp;f.transform(h(p)),&quot;userSpaceOnUse&quot;===a.getAttribute(&quot;gradientUnits&quot;)&amp;&amp;f.transform(new x(-i.x,-i.y)),f.paintMesh(u.data,l.width),c.putImageData(u,0,0);const y=document.createElementNS(t,&quot;image&quot;);d(y,{width:i.width,height:i.height,x:i.x,y:i.y});let g=l.toDataURL();y.setAttributeNS(e,&quot;xlink:href&quot;,g),r.parentNode.insertBefore(y,r),r.style.fill=&quot;none&quot;;const w=document.createElementNS(t,&quot;use&quot;);w.setAttributeNS(e,&quot;xlink:href&quot;,&quot;#&quot;+o);const m=&quot;patchjs_clip&quot;+n,M=document.createElementNS(t,&quot;clipPath&quot;);M.setAttribute(&quot;id&quot;,m),M.appendChild(w),r.parentElement.insertBefore(M,r),y.setAttribute(&quot;clip-path&quot;,&quot;url(#&quot;+m+&quot;)&quot;),u=null,l=null,g=null}}if(a&amp;&amp;a[1]){const o=document.getElementById(a[1]);if(o&amp;&amp;&quot;meshgradient&quot;===o.nodeName){const i=parseFloat(r.style.strokeWidth.slice(0,-2))*(parseFloat(r.style.strokeMiterlimit)||parseFloat(r.getAttribute(&quot;stroke-miterlimit&quot;))||1),a=r.getBBox(),l=Math.trunc(a.width+i),c=Math.trunc(a.height+i),u=Math.trunc(a.x-i/2),f=Math.trunc(a.y-i/2);let p=document.createElementNS(s,&quot;canvas&quot;);d(p,{width:l,height:c});const y=p.getContext(&quot;2d&quot;);let g=y.createImageData(l,c);const w=new b(o);&quot;objectBoundingBox&quot;===o.getAttribute(&quot;gradientUnits&quot;)&amp;&amp;w.scale(new x(l,c));const m=o.getAttribute(&quot;gradientTransform&quot;);null!=m&amp;&amp;w.transform(h(m)),&quot;userSpaceOnUse&quot;===o.getAttribute(&quot;gradientUnits&quot;)&amp;&amp;w.transform(new x(-u,-f)),w.paintMesh(g.data,p.width),y.putImageData(g,0,0);const M=document.createElementNS(t,&quot;image&quot;);d(M,{width:l,height:c,x:0,y:0});let S=p.toDataURL();M.setAttributeNS(e,&quot;xlink:href&quot;,S);const k=&quot;pattern_clip&quot;+n,A=document.createElementNS(t,&quot;pattern&quot;);d(A,{id:k,patternUnits:&quot;userSpaceOnUse&quot;,width:l,height:c,x:u,y:f}),A.appendChild(M),o.parentNode.appendChild(A),r.style.stroke=&quot;url(#&quot;+k+&quot;)&quot;,g=null,p=null,S=null}}})}();
</script>
  <text
     xml:space="preserve"
     style="font-style:normal;font-variant:normal;font-weight:normal;font-stretch:normal;font-size:1000px;font-family:Montserrat;-inkscape-font-specification:Montserrat;text-align:start;writing-mode:lr-tb;direction:ltr;text-anchor:start;fill:#394139;fill-opacity:1;fill-rule:nonzero;stroke:none;stroke-width:6.086;stroke-opacity:0"
     x="1693.0336"
     y="1304.9517"
     id="text1"><tspan
       sodipodi:role="line"
       id="tspan1"
       x="1693.0336"
       y="1304.9517"
       style="font-style:normal;font-variant:normal;font-weight:500;font-stretch:normal;font-size:1000px;font-family:Montserrat;-inkscape-font-specification:'Montserrat Medium';fill:#394139;fill-opacity:1;fill-rule:nonzero;stroke:none;stroke-opacity:1">HIDRO</tspan></text>
  <text
     xml:space="preserve"
     style="font-weight:500;font-size:400px;font-family:Montserrat;-inkscape-font-specification:'Montserrat Medium';text-align:start;writing-mode:lr-tb;direction:ltr;text-anchor:start;fill:#f38c2b;fill-opacity:1;stroke-width:6.086"
     x="3742.6245"
     y="1619.9851"
     id="text2"><tspan
       sodipodi:role="line"
       id="tspan2"
       x="3742.6245"
       y="1619.9851"
       style="font-size:400px;fill:#f38c2b;fill-opacity:1">TOOLS</tspan></text>
</svg>
